<?xml version="1.0" encoding="utf-8"?>
<svg width="360" height="360" viewBox="0 0 360 360" xmlns="http://www.w3.org/2000/svg">
	<svg id="logo" viewBox="0 0 726 726"><path d="M178.4 383.76c.96-3.36 1.84-6.68 2.64-9.96.88-3.28 1.72-6.76 2.52-10.44.88-3.76 1.8-7.84 2.76-12.24 1.04-4.48 2.24-9.56 3.6-15.24.24-1.12.6-1.84 1.08-2.16.48-.4 1.52-.6 3.12-.6 1.2 0 2.8.04 4.8.12 2 .08 3.96.36 5.88.84s3.56 1.2 4.92 2.16c1.44.96 2.16 2.28 2.16 3.96 0 1.36-.48 3.56-1.44 6.6-.96 3.04-2.2 6.52-3.72 10.44a273.47 273.47 0 01-5.16 12.12c-1.84 4.24-3.64 8.24-5.4 12-1.76 3.76-3.4 7.08-4.92 9.96-1.52 2.8-2.64 4.76-3.36 5.88-.64.88-1.2 1.4-1.68 1.56-.48.16-1.28.24-2.4.24h-10.68c-1.68 0-3.08-.28-4.2-.84a9.471 9.471 0 01-2.64-2.4c-.72-.96-1.32-2.04-1.8-3.24-.48-1.28-.92-2.6-1.32-3.96-2.32-8-4.36-14.84-6.12-20.52-1.68-5.76-3.12-10.56-4.32-14.4-1.2-3.84-2.16-6.88-2.88-9.12-.72-2.32-1.28-4.08-1.68-5.28-.4-1.28-.68-2.12-.84-2.52-.16-.48-.24-.8-.24-.96.08-.56.48-1.16 1.2-1.8.72-.64 1.64-.96 2.76-.96 3.68 0 6.8.16 9.36.48 2.64.24 4.8.72 6.48 1.44 1.76.72 3.08 1.72 3.96 3 .96 1.28 1.64 2.96 2.04 5.04l.48 3.36c.24 1.68.48 3.72.72 6.12.32 2.32.68 4.92 1.08 7.8.4 2.8.76 5.64 1.08 8.52.4 2.8.76 5.52 1.08 8.16.4 2.64.76 4.92 1.08 6.84zm78.428-22.08h-1.68l-1.68-.24c-.56-.16-1.04-.32-1.44-.48-.4-.24-.6-.52-.6-.84 0-1.04.04-2 .12-2.88.08-.88.12-1.8.12-2.76 0-1.76-.24-3.2-.72-4.32s-1.44-1.68-2.88-1.68c-2.24 0-4.12 1.48-5.64 4.44-1.44 2.88-2.36 7.24-2.76 13.08-.16 2.56-.4 5.48-.72 8.76-.24 3.2-.48 6.32-.72 9.36-.24 2.96-.44 5.6-.6 7.92-.16 2.32-.24 3.84-.24 4.56 0 .8-.28 1.4-.84 1.8-.56.4-1.16.6-1.8.6h-4.32c-2.48 0-4.52-.24-6.12-.72-1.52-.56-2.76-1.32-3.72-2.28-.88-.96-1.52-2.12-1.92-3.48-.32-1.44-.48-3.08-.48-4.92 0-1.2.04-2.88.12-5.04.16-2.24.4-5.28.72-9.12.32-3.92.68-8.84 1.08-14.76.48-6 1.04-13.4 1.68-22.2.16-2.32 1-3.48 2.52-3.48h4.68c2.24 0 4.12.24 5.64.72 1.52.48 2.76 1.16 3.72 2.04.96.8 1.64 1.76 2.04 2.88.48 1.12.8 2.28.96 3.48.96-1.84 2.08-3.4 3.36-4.68 1.36-1.36 2.76-2.44 4.2-3.24 1.44-.88 2.92-1.48 4.44-1.8 1.52-.4 2.92-.6 4.2-.6 1.52 0 3.04.28 4.56.84 1.6.56 3.04 1.4 4.32 2.52 1.28 1.12 2.28 2.56 3 4.32.8 1.76 1.2 3.84 1.2 6.24 0 2.16-.32 4.2-.96 6.12-.64 1.92-1.56 3.64-2.76 5.16-1.2 1.44-2.68 2.6-4.44 3.48-1.68.8-3.56 1.2-5.64 1.2zm45.542 38.52c-5.52 0-10.12-.76-13.8-2.28-3.6-1.6-6.48-3.76-8.64-6.48-2.16-2.72-3.68-5.88-4.56-9.48-.88-3.68-1.32-7.6-1.32-11.76 0-4.8.56-9.48 1.68-14.04 1.2-4.64 3.2-8.76 6-12.36 2.8-3.6 6.48-6.48 11.04-8.64 4.64-2.24 10.4-3.36 17.28-3.36 10.08 0 17.28 2.48 21.6 7.44 4.4 4.88 6.6 11.76 6.6 20.64 0 2.48-.2 5.24-.6 8.28-.32 2.96-1 5.92-2.04 8.88-.96 2.96-2.32 5.84-4.08 8.64-1.68 2.8-3.84 5.28-6.48 7.44-2.64 2.16-5.84 3.88-9.6 5.16-3.68 1.28-8.04 1.92-13.08 1.92zm5.64-52.44c-3.04 0-5.48.8-7.32 2.4-1.76 1.52-3.12 3.4-4.08 5.64-.88 2.16-1.48 4.48-1.8 6.96-.24 2.4-.36 4.44-.36 6.12 0 5.28.84 9.16 2.52 11.64 1.68 2.48 4.08 3.72 7.2 3.72 2.8 0 5.08-.88 6.84-2.64 1.84-1.76 3.24-3.88 4.2-6.36 1.04-2.48 1.72-5.08 2.04-7.8.4-2.72.6-5 .6-6.84 0-4-.76-7.12-2.28-9.36-1.44-2.32-3.96-3.48-7.56-3.48zm66.079 52.44c-5.52 0-10.12-.76-13.8-2.28-3.6-1.6-6.48-3.76-8.64-6.48-2.16-2.72-3.68-5.88-4.56-9.48-.88-3.68-1.32-7.6-1.32-11.76 0-4.8.56-9.48 1.68-14.04 1.2-4.64 3.2-8.76 6-12.36 2.8-3.6 6.48-6.48 11.04-8.64 4.64-2.24 10.4-3.36 17.28-3.36 10.08 0 17.28 2.48 21.6 7.44 4.4 4.88 6.6 11.76 6.6 20.64 0 2.48-.2 5.24-.6 8.28-.32 2.96-1 5.92-2.04 8.88-.96 2.96-2.32 5.84-4.08 8.64-1.68 2.8-3.84 5.28-6.48 7.44-2.64 2.16-5.84 3.88-9.6 5.16-3.68 1.28-8.04 1.92-13.08 1.92zm5.64-52.44c-3.04 0-5.48.8-7.32 2.4-1.76 1.52-3.12 3.4-4.08 5.64-.88 2.16-1.48 4.48-1.8 6.96-.24 2.4-.36 4.44-.36 6.12 0 5.28.84 9.16 2.52 11.64 1.68 2.48 4.08 3.72 7.2 3.72 2.8 0 5.08-.88 6.84-2.64 1.84-1.76 3.24-3.88 4.2-6.36 1.04-2.48 1.72-5.08 2.04-7.8.4-2.72.6-5 .6-6.84 0-4-.76-7.12-2.28-9.36-1.44-2.32-3.96-3.48-7.56-3.48zm59.959 29.64c-.24 3.68-.52 7.2-.84 10.56-.32 3.28-.56 6.16-.72 8.64-.08.96-.28 1.6-.6 1.92-.32.32-1 .48-2.04.48h-4.32c-2.48 0-4.52-.24-6.12-.72-1.52-.56-2.76-1.32-3.72-2.28-.88-.96-1.52-2.12-1.92-3.48-.32-1.44-.48-3.08-.48-4.92 0-1.2.04-2.88.12-5.04.16-2.24.4-5.28.72-9.12.32-3.92.68-8.84 1.08-14.76.48-6 1.04-13.4 1.68-22.2.08-1.76.28-2.8.6-3.12.24-.24.88-.36 1.92-.36h4.68c2.4 0 4.36.28 5.88.84 1.52.56 2.76 1.28 3.72 2.16.96.88 1.64 1.92 2.04 3.12.4 1.2.64 2.44.72 3.72 2.32-4.32 4.96-7.24 7.92-8.76 2.96-1.52 6.44-2.28 10.44-2.28 2.16 0 4.24.2 6.24.6 2 .4 3.8 1.08 5.4 2.04 1.6.96 2.96 2.24 4.08 3.84 1.12 1.52 1.92 3.48 2.4 5.88 2.48-4.64 5.2-7.84 8.16-9.6 2.96-1.84 6.68-2.76 11.16-2.76 2.48 0 4.84.28 7.08.84 2.32.48 4.32 1.36 6 2.64 1.68 1.28 3 3.04 3.96 5.28 1.04 2.16 1.56 4.88 1.56 8.16 0 2.48-.12 5.52-.36 9.12-.24 3.6-.52 7.52-.84 11.76-.32 4.16-.68 8.48-1.08 12.96-.4 4.4-.72 8.64-.96 12.72-.08.88-.16 1.56-.24 2.04-.08.48-.24.84-.48 1.08-.16.24-.44.4-.84.48-.4.08-.96.12-1.68.12h-3.84c-2.56 0-4.64-.24-6.24-.72-1.6-.48-2.84-1.16-3.72-2.04-.88-.88-1.52-1.96-1.92-3.24-.32-1.36-.48-2.88-.48-4.56 0-1.04.04-2.52.12-4.44.16-1.92.32-4 .48-6.24.24-2.24.44-4.56.6-6.96.24-2.4.44-4.6.6-6.6.24-2.08.4-3.88.48-5.4.16-1.52.24-2.52.24-3 0-2.08-.44-3.92-1.32-5.52-.8-1.6-2.4-2.4-4.8-2.4-2.08 0-3.88.68-5.4 2.04-1.52 1.36-2.8 3.24-3.84 5.64-1.04 2.4-1.88 5.24-2.52 8.52-.64 3.28-1.08 6.84-1.32 10.68-.16 2.48-.36 5.32-.6 8.52-.24 3.2-.52 7.2-.84 12-.08.88-.16 1.56-.24 2.04-.08.48-.24.84-.48 1.08-.16.24-.44.4-.84.48-.4.08-.96.12-1.68.12h-3.84c-2.56 0-4.64-.24-6.24-.72-1.6-.48-2.84-1.16-3.72-2.04-.88-.88-1.52-1.96-1.92-3.24-.32-1.36-.48-2.88-.48-4.56 0-1.6.12-3.92.36-6.96.32-3.12.6-6.32.84-9.6.32-3.36.6-6.52.84-9.48.32-3.04.48-5.24.48-6.6 0-2.08-.44-3.92-1.32-5.52-.8-1.6-2.4-2.4-4.8-2.4-2.16 0-4 .8-5.52 2.4-1.52 1.6-2.8 3.76-3.84 6.48-.96 2.64-1.76 5.76-2.4 9.36-.56 3.6-.96 7.36-1.2 11.28zm115.481-45.6c6.8 0 11.8 1.36 15 4.08 3.2 2.64 4.8 6.04 4.8 10.2 0 3.52-1.12 6.2-3.36 8.04-2.16 1.84-5.32 2.76-9.48 2.76-1.12 0-1.88-.12-2.28-.36-.4-.24-.6-.68-.6-1.32 0-.72-.08-1.52-.24-2.4-.08-.96-.36-1.84-.84-2.64-.4-.88-1.08-1.6-2.04-2.16-.88-.56-2.16-.84-3.84-.84-2.24 0-4.04.56-5.4 1.68-1.36 1.04-2.04 2.36-2.04 3.96 0 1.68.68 3.04 2.04 4.08 1.44.96 3.2 1.88 5.28 2.76 2.16.88 4.48 1.8 6.96 2.76a26.6 26.6 0 016.84 3.6c2.16 1.52 3.92 3.44 5.28 5.76 1.44 2.24 2.16 5.16 2.16 8.76 0 5.76-2.04 10.48-6.12 14.16-4.08 3.68-10.2 5.52-18.36 5.52-2.24 0-4.84-.2-7.8-.6-2.88-.32-5.64-.84-8.28-1.56-2.64-.8-4.88-1.84-6.72-3.12-1.76-1.28-2.64-2.88-2.64-4.8 0-.72.12-1.6.36-2.64.32-1.04.76-2.04 1.32-3 .64-.96 1.36-1.76 2.16-2.4.88-.72 1.92-1.08 3.12-1.08.96 0 1.84.24 2.64.72s1.72 1 2.76 1.56c1.12.48 2.48.96 4.08 1.44s3.72.72 6.36.72c2 0 3.76-.24 5.28-.72 1.6-.48 2.4-1.56 2.4-3.24 0-1.52-.64-2.72-1.92-3.6-1.28-.96-2.92-1.84-4.92-2.64-1.92-.8-4.04-1.64-6.36-2.52-2.24-.96-4.36-2.2-6.36-3.72-1.92-1.52-3.52-3.44-4.8-5.76-1.28-2.4-1.92-5.48-1.92-9.24 0-4.08.8-7.52 2.4-10.32 1.68-2.88 3.8-5.2 6.36-6.96 2.64-1.76 5.6-3 8.88-3.72 3.28-.8 6.56-1.2 9.84-1.2z" fill="currentColor"/><rect x="363" y="12.275" width="496" height="496" rx="172" transform="rotate(45 363 12.275)" stroke="currentColor" fill="transparent" stroke-width="16"/></svg>
</svg>
